<svg xmlns="http://www.w3.org/2000/svg" viewBox="0 0 200 200" fill="none" role="img" aria-label="Panda-Bande">
  <circle cx="100" cy="100" r="94" fill="#F4F1EA" stroke="#2C2C2C" stroke-width="3"/>
  <!-- Linker Panda -->
  <g transform="translate(10, 42) scale(0.38)">
    <ellipse cx="100" cy="130" rx="55" ry="50" fill="#52563E" stroke="#2C2C2C" stroke-width="6"/>
    <circle cx="65" cy="75" r="22" fill="#52563E" stroke="#2C2C2C" stroke-width="5"/>
    <circle cx="135" cy="75" r="22" fill="#52563E" stroke="#2C2C2C" stroke-width="5"/>
    <circle cx="72" cy="68" r="8" fill="#F9F7F2"/>
    <circle cx="128" cy="68" r="8" fill="#F9F7F2"/>
    <circle cx="74" cy="68" r="4" fill="#2C2C2C"/>
    <circle cx="130" cy="68" r="4" fill="#2C2C2C"/>
    <ellipse cx="100" cy="88" rx="10" ry="7" fill="#F9F7F2"/>
    <circle cx="97" cy="86" r="2" fill="#2C2C2C"/>
    <circle cx="103" cy="86" r="2" fill="#2C2C2C"/>
    <ellipse cx="100" cy="145" rx="18" ry="14" fill="#F9F7F2"/>
  </g>
  <!-- Rechter Panda -->
  <g transform="translate(92, 46) scale(0.36)">
    <ellipse cx="100" cy="130" rx="55" ry="50" fill="#52563E" stroke="#2C2C2C" stroke-width="6"/>
    <circle cx="65" cy="75" r="22" fill="#52563E" stroke="#2C2C2C" stroke-width="5"/>
    <circle cx="135" cy="75" r="22" fill="#52563E" stroke="#2C2C2C" stroke-width="5"/>
    <circle cx="72" cy="68" r="8" fill="#F9F7F2"/>
    <circle cx="128" cy="68" r="8" fill="#F9F7F2"/>
    <circle cx="74" cy="68" r="4" fill="#2C2C2C"/>
    <circle cx="130" cy="68" r="4" fill="#2C2C2C"/>
    <ellipse cx="100" cy="88" rx="10" ry="7" fill="#F9F7F2"/>
    <circle cx="97" cy="86" r="2" fill="#2C2C2C"/>
    <circle cx="103" cy="86" r="2" fill="#2C2C2C"/>
    <ellipse cx="100" cy="145" rx="18" ry="14" fill="#F9F7F2"/>
  </g>
</svg>
